<?xml version="1.0" encoding="UTF-8"?>
<!DOCTYPE svg PUBLIC "-//W3C//DTD SVG 1.1//EN" "http://www.w3.org/Graphics/SVG/1.1/DTD/svg11.dtd">
<!-- Creator: CorelDRAW X7 -->
<svg xmlns="http://www.w3.org/2000/svg" xml:space="preserve" width="27.5951mm" height="27.595mm" version="1.1" style="shape-rendering:geometricPrecision; text-rendering:geometricPrecision; image-rendering:optimizeQuality; fill-rule:evenodd; clip-rule:evenodd"
viewBox="0 0 5128 5128"
 xmlns:xlink="http://www.w3.org/1999/xlink">
 <defs>
  <style type="text/css">
   <![CDATA[
    .str0 {stroke:black;stroke-width:37.1691}
    .fil1 {fill:none}
    .fil3 {fill:#DBE4EB}
    .fil0 {fill:#496075}
    .fil2 {fill:black;fill-rule:nonzero}
   ]]>
  </style>
 </defs>
 <g id="Слой_x0020_1">
  <metadata id="CorelCorpID_0Corel-Layer"/>
  <rect class="fil0 str0" x="828" y="1283" width="3466" height="2275"/>
  <rect class="fil1" width="5128" height="5128"/>
  <path class="fil2" d="M3544 4137l-714 0 0 -266c0,-34 -28,-61 -62,-61 -33,0 -61,27 -61,61l0 266 -286 0 0 -266c0,-34 -27,-61 -61,-61 -34,0 -61,27 -61,61l0 266 -715 0c-34,0 -61,27 -61,61 0,34 27,61 61,61l1960 0c34,0 62,-27 62,-61 0,-34 -28,-61 -62,-61z"/>
  <path class="fil2" d="M4280 1196l-3431 0c-79,0 -143,64 -143,143l0 2206c0,78 64,142 143,142l2716 0 0 21c0,34 27,61 61,61 34,0 61,-27 61,-61l0 -21 123 0 0 21c0,34 27,61 61,61 34,0 62,-27 62,-61l0 -21 122 0 0 21c0,34 28,61 61,61 34,0 62,-27 62,-61l0 -21 102 0c79,0 143,-64 143,-142l0 -2206c0,-79 -64,-143 -143,-143zm20 2349c0,11 -9,20 -20,20l-3431 0c-11,0 -21,-9 -21,-20l0 -2206c0,-11 10,-21 21,-21l3431 0c11,0 20,10 20,21l0 2206z"/>
  <rect class="fil3" x="1012" y="1441" width="3165" height="1940"/>
  <path class="fil2" d="M4116 2993c-33,0 -61,28 -61,61l0 266 -2982 0 0 -1573c0,-34 -27,-61 -61,-61 -34,0 -61,27 -61,61l0 1634c0,34 27,61 61,61l3104 0c34,0 62,-27 62,-61l0 -327c0,-33 -28,-61 -62,-61z"/>
  <path class="fil2" d="M4116 1441l-3104 0c-34,0 -61,27 -61,61 0,34 27,62 61,62l3043 0 0 1245c0,34 28,62 61,62 34,0 62,-28 62,-62l0 -1307c0,-34 -28,-61 -62,-61z"/>
 </g>
</svg>
