<?xml version="1.0" encoding="UTF-8"?>
<!DOCTYPE svg PUBLIC "-//W3C//DTD SVG 1.1//EN" "http://www.w3.org/Graphics/SVG/1.1/DTD/svg11.dtd">
<!-- Creator: CorelDRAW X7 -->
<svg xmlns="http://www.w3.org/2000/svg" xml:space="preserve" width="27.5951mm" height="27.595mm" version="1.1" style="shape-rendering:geometricPrecision; text-rendering:geometricPrecision; image-rendering:optimizeQuality; fill-rule:evenodd; clip-rule:evenodd"
viewBox="0 0 391 391"
 xmlns:xlink="http://www.w3.org/1999/xlink">
 <defs>
  <style type="text/css">
   <![CDATA[
    .str0 {stroke:black;stroke-width:2.83247}
    .fil0 {fill:none}
    .fil1 {fill:#3FA3BD}
    .fil2 {fill:#252422;fill-rule:nonzero}
   ]]>
  </style>
 </defs>
 <g id="Слой_x0020_1">
  <metadata id="CorelCorpID_0Corel-Layer"/>
  <rect class="fil0" width="391" height="391"/>
  <g id="_783001960624">
   <path class="fil1 str0" d="M93 136l20 -10 28 7 15 12 82 0 26 -19 27 3 15 15 19 79 3 23c0,0 -8,8 -10,9 -2,1 -14,8 -21,8 -6,0 -8,1 -11,-1 -3,-3 -12,-8 -15,-11 -3,-2 -12,-23 -12,-23 0,0 -3,-8 -7,-6 -3,1 -9,8 -11,8 -1,1 -9,1 -9,1 0,0 -12,1 -14,0 -2,-1 -10,-5 -10,-6 -1,-2 -2,-9 -5,-9 -4,0 -11,0 -11,0 0,0 -4,0 -7,3 -2,2 -7,9 -9,11 -1,1 2,1 -7,2 -8,2 -10,2 -11,2 -2,0 -3,-1 -7,-3 -3,-2 -7,-6 -7,-6 0,0 -5,-3 -7,-3 -1,0 -2,6 -4,10 -3,3 -5,8 -6,11 -1,3 -17,20 -21,20 -4,0 -18,0 -22,0 -3,-1 -17,-9 -17,-9l-7 -14 8 -43 25 -61z"/>
   <g>
    <path class="fil2" d="M322 243c-3,6 -9,11 -15,14 -7,2 -15,2 -21,0 -7,-3 -13,-8 -16,-15l-12 -25c-1,-3 -4,-5 -7,-4 -3,0 -6,2 -7,5 -2,6 -9,11 -16,11 -8,0 -15,-6 -17,-14 -1,-3 -4,-6 -7,-6l-17 0c-3,0 -6,3 -7,6 -2,8 -9,14 -17,14 -7,0 -14,-5 -16,-11 -1,-3 -4,-5 -7,-5 -3,-1 -6,1 -7,4l-12 25c-7,13 -25,20 -39,15 -13,-5 -20,-19 -15,-35l18 -65c3,-9 9,-17 18,-21 5,-3 10,-4 15,-4 4,0 8,1 12,2 7,3 13,7 17,13 2,3 6,5 9,5l79 0c4,0 7,-2 9,-5 4,-6 10,-10 17,-13 9,-3 19,-3 28,2 8,4 15,12 17,21l18 65c2,7 2,14 -2,21zm-49 -123l0 0c-6,0 -11,1 -16,3 -9,4 -17,10 -22,17 0,0 0,0 0,0l-79 0c0,0 0,0 0,0 0,0 0,0 0,0 -5,-7 -13,-13 -21,-17 -6,-2 -11,-3 -17,-3 -7,0 -14,2 -21,5 -11,6 -20,17 -23,29l-18 65c-6,21 3,42 22,49 4,2 9,2 14,2 17,0 32,-9 39,-23l9 -18c5,7 14,12 23,12 13,0 24,-9 27,-20l11 0c3,11 14,20 27,20 9,0 18,-5 23,-12l9 18c4,9 12,17 21,20 10,4 20,4 30,1 9,-4 17,-11 22,-20 4,-9 5,-19 3,-29l-19 -65c-3,-12 -12,-23 -23,-29 -7,-3 -14,-5 -21,-5z"/>
    <path class="fil2" d="M273 150c4,0 8,3 8,7 0,4 -4,8 -8,8 -4,0 -7,-4 -7,-8 0,-4 3,-7 7,-7z"/>
    <path class="fil2" d="M273 185c4,0 8,3 8,7 0,4 -4,7 -8,7 -4,0 -7,-3 -7,-7 0,-4 3,-7 7,-7z"/>
    <path class="fil2" d="M256 167c4,0 7,4 7,8 0,4 -3,7 -7,7 -4,0 -7,-3 -7,-7 0,-4 3,-8 7,-8z"/>
    <path class="fil2" d="M291 167c4,0 7,4 7,8 0,4 -3,7 -7,7 -4,0 -8,-3 -8,-7 0,-4 4,-8 8,-8z"/>
    <path class="fil2" d="M135 169l-10 0 0 -10c0,-4 -3,-6 -6,-6 -3,0 -6,2 -6,6l0 10 -10 0c-3,0 -6,3 -6,6 0,3 3,6 6,6l10 0 0 10c0,3 3,6 6,6 3,0 6,-3 6,-6l0 -10 10 0c3,0 6,-3 6,-6 0,-3 -3,-6 -6,-6z"/>
    <path class="fil2" d="M182 169l-6 0c-3,0 -6,3 -6,6 0,3 3,6 6,6l6 0c3,0 6,-3 6,-6 0,-3 -3,-6 -6,-6z"/>
    <path class="fil2" d="M221 175c0,-3 -2,-6 -6,-6l-6 0c-3,0 -6,3 -6,6 0,3 3,6 6,6l6 0c4,0 6,-3 6,-6z"/>
    <path class="fil2" d="M163 215c-2,0 -3,-1 -3,-3 0,-2 1,-3 3,-3 2,0 3,1 3,3 0,2 -1,3 -3,3zm0 -15c-6,0 -12,5 -12,12 0,6 6,12 12,12 7,0 12,-6 12,-12 0,-7 -5,-12 -12,-12z"/>
    <path class="fil2" d="M228 215c-2,0 -3,-1 -3,-3 0,-2 1,-3 3,-3 2,0 3,1 3,3 0,2 -1,3 -3,3zm0 -15c-6,0 -12,5 -12,12 0,6 6,12 12,12 6,0 12,-6 12,-12 0,-7 -6,-12 -12,-12z"/>
   </g>
  </g>
 </g>
</svg>
