<?xml version="1.0" encoding="UTF-8"?>
<!DOCTYPE svg PUBLIC "-//W3C//DTD SVG 1.1//EN" "http://www.w3.org/Graphics/SVG/1.1/DTD/svg11.dtd">
<!-- Creator: CorelDRAW X7 -->
<svg xmlns="http://www.w3.org/2000/svg" xml:space="preserve" width="27.595mm" height="27.595mm" version="1.1" style="shape-rendering:geometricPrecision; text-rendering:geometricPrecision; image-rendering:optimizeQuality; fill-rule:evenodd; clip-rule:evenodd"
viewBox="0 0 1119 1119"
 xmlns:xlink="http://www.w3.org/1999/xlink">
 <defs>
  <style type="text/css">
   <![CDATA[
    .fil0 {fill:none}
    .fil4 {fill:#252422;fill-rule:nonzero}
    .fil1 {fill:#DBE4EB;fill-rule:nonzero}
    .fil3 {fill:#E05146;fill-rule:nonzero}
    .fil2 {fill:#EC6A53;fill-rule:nonzero}
   ]]>
  </style>
 </defs>
 <g id="Слой_x0020_1">
  <metadata id="CorelCorpID_0Corel-Layer"/>
  <g id="_782897773152">
   <rect class="fil0" width="1119" height="1119"/>
   <g id="_783004490112">
    <polygon class="fil1" points="428,256 398,168 340,168 310,256 344,298 344,566 398,566 398,298 "/>
    <polygon class="fil2" points="323,612 419,612 419,566 323,566 "/>
    <polygon class="fil3" points="323,612 361,612 361,566 323,566 "/>
    <path class="fil2" d="M402 675c0,-8 5,-17 9,-21 12,-8 21,-25 21,-42l0 0 -126 0 0 0c0,17 8,34 21,42 4,4 8,13 8,21 0,8 0,17 -8,21 -13,13 -21,29 -21,50l0 134c0,34 29,59 63,59l0 0c33,0 63,-25 63,-59l0 -134c0,-21 -9,-37 -21,-50 -4,-4 -9,-13 -9,-21z"/>
    <path class="fil3" d="M344 880l0 -134c0,-21 4,-37 8,-50 4,-4 4,-13 4,-21 0,-8 0,-17 -4,-21 -4,-8 -8,-25 -8,-42l0 0 -38 0 0 0c0,17 8,34 21,42 4,4 8,13 8,21 0,8 0,17 -8,21 -13,13 -21,29 -21,50l0 134c0,34 29,59 63,59l0 0c-13,0 -25,-25 -25,-59z"/>
    <path class="fil1" d="M713 675l0 -277c0,-25 8,-50 21,-71 4,-13 12,-29 12,-50 0,-63 -54,-113 -117,-109l33 63c13,21 5,50 -21,62l0 0c-21,13 -50,5 -62,-20l-34 -59c-13,17 -21,33 -21,54 -4,46 21,84 55,105 29,17 46,88 46,118l0 230c0,25 -9,50 -17,71 -8,13 -13,34 -13,51 0,63 51,113 114,109l-34 -63c-13,-21 -4,-51 21,-63l0 0c25,-13 54,-4 67,21l29 59c13,-17 21,-34 21,-55 5,-46 -21,-84 -54,-105 -30,-17 -46,-42 -46,-71l0 0z"/>
    <path class="fil4" d="M402 646c-8,8 -12,16 -12,29 0,13 4,25 12,34 9,8 17,20 17,37l0 134c0,26 -25,47 -50,47 -25,0 -50,-21 -50,-47l0 -134c0,-17 8,-29 16,-37 9,-9 13,-21 13,-34 0,-13 -4,-21 -13,-29 -8,-9 -12,-13 -12,-21l92 0c0,8 -8,12 -13,21l0 0zm-67 -67l67 0 0 21 -67 0 0 -21zm97 21l0 0 0 -34c0,-8 -9,-13 -17,-13l-4 0 0 -251 29 -38c0,-4 0,-8 0,-12l-29 -89c0,-4 -9,-8 -13,-8l-58 0c-5,0 -13,4 -13,8l-29 89c0,4 0,8 0,12l29 38 0 109c0,8 8,17 13,17 8,0 16,-9 16,-17l0 -113c0,-5 -4,-5 -4,-9l-29 -33 25 -76 42 0 21 76 -25 33c0,4 -4,4 -4,9l0 255 -26 0 0 -96c0,-8 -8,-13 -16,-13 -5,0 -13,5 -13,13l0 96 -4 0c-9,0 -17,5 -17,13l0 34 0 0c-8,0 -13,4 -13,12l0 0c0,21 9,38 26,55 0,0 4,4 4,8 0,4 0,8 -4,13 -17,16 -26,37 -26,58l0 134c0,42 34,76 76,76 42,0 75,-34 75,-76l0 -134c0,-21 -8,-42 -25,-58 -4,-5 -4,-9 -4,-13 0,-4 0,-8 4,-8 17,-17 25,-34 25,-55l0 0c0,-8 -8,-12 -12,-12l0 0z"/>
    <path class="fil4" d="M608 532c0,9 8,13 17,13 4,0 12,-4 12,-13l0 -41c0,-26 -17,-109 -50,-130 -34,-17 -50,-51 -50,-88 0,-13 4,-21 8,-30l21 38c4,12 21,25 34,29 16,4 33,4 50,-4 12,-8 25,-21 29,-38 4,-12 4,-29 -4,-46l-21 -38c17,0 34,13 46,26 21,16 29,42 29,67 0,16 -4,29 -8,46 -12,25 -21,50 -21,75l0 277c0,34 21,67 50,84 21,12 38,29 47,54 0,5 4,9 12,9 0,0 0,0 4,0 5,-4 9,-9 9,-17 -9,-29 -30,-55 -59,-71 -21,-13 -38,-34 -38,-59l0 -277c0,-21 9,-42 17,-63 8,-16 17,-37 17,-58 0,-34 -17,-63 -38,-88 -25,-21 -54,-34 -88,-34 0,0 0,0 -4,0 -4,0 -9,0 -13,4 0,5 0,9 0,13l34 63c4,8 4,17 4,29 -4,9 -8,13 -17,21 -8,4 -21,4 -29,0 -8,-4 -17,-8 -21,-17l-29 -63c-5,-4 -9,-4 -13,-4 -4,0 -8,0 -13,4 -12,21 -21,42 -21,63 -4,51 21,93 63,118 17,8 34,71 34,105l0 41 0 0z"/>
    <path class="fil4" d="M813 834c-8,0 -12,9 -12,13 0,12 -4,21 -9,29l-21 -38c-16,-29 -54,-41 -83,-25 -30,17 -42,55 -26,84l21 38c-16,0 -33,-8 -46,-25 -21,-17 -29,-42 -29,-67 0,-17 0,-30 8,-46 13,-26 21,-51 21,-76l0 -134c0,-8 -8,-13 -12,-13 -9,0 -17,5 -17,13l0 134c0,21 -4,42 -13,63 -12,17 -16,38 -16,59 0,33 12,63 37,88 25,21 55,33 88,33l0 0 0 0 0 0c0,0 0,0 5,0 4,0 8,0 8,-4 4,-4 4,-8 0,-13l-29 -62c-13,-17 -5,-38 12,-47 9,-8 17,-8 29,-4 9,4 13,9 21,17l30 63c4,4 8,4 12,4 5,0 9,0 13,-4 13,-17 21,-42 21,-63 0,0 0,0 0,0l0 0c0,-8 -4,-13 -13,-17l0 0z"/>
   </g>
  </g>
 </g>
</svg>
