<?xml version="1.0" encoding="UTF-8"?>
<!DOCTYPE svg PUBLIC "-//W3C//DTD SVG 1.1//EN" "http://www.w3.org/Graphics/SVG/1.1/DTD/svg11.dtd">
<!-- Creator: CorelDRAW X7 -->
<svg xmlns="http://www.w3.org/2000/svg" xml:space="preserve" width="27.5951mm" height="27.595mm" version="1.1" style="shape-rendering:geometricPrecision; text-rendering:geometricPrecision; image-rendering:optimizeQuality; fill-rule:evenodd; clip-rule:evenodd"
viewBox="0 0 724 724"
 xmlns:xlink="http://www.w3.org/1999/xlink">
 <defs>
  <style type="text/css">
   <![CDATA[
    .str1 {stroke:#252422;stroke-width:13.1216}
    .str0 {stroke:black;stroke-width:5.24863}
    .fil0 {fill:none}
    .fil2 {fill:#EC6A53}
    .fil1 {fill:#E05146}
    .fil3 {fill:#252422;fill-rule:nonzero}
   ]]>
  </style>
 </defs>
 <g id="Слой_x0020_1">
  <metadata id="CorelCorpID_0Corel-Layer"/>
  <rect class="fil0" width="724" height="724"/>
  <polygon class="fil1 str0" points="377,454 398,370 580,370 373,570 345,563 148,367 295,367 303,294 "/>
  <polygon class="fil2 str0" points="147,203 200,158 268,152 358,211 421,164 501,156 568,186 607,254 598,353 572,369 398,370 379,458 303,294 295,367 148,367 112,290 125,228 "/>
  <polyline class="fil0 str1" points="148,367 295,367 303,294 379,458 398,370 572,369 "/>
  <path class="fil3" d="M562 370l-181 180c-10,11 -27,11 -38,0l-182 -182c-22,-22 -34,-52 -34,-83 0,-32 12,-62 34,-84 23,-23 53,-35 84,-35 32,0 62,12 84,35l14 14 -21 22c-6,5 -6,13 0,19 2,2 6,4 9,4 4,0 7,-2 10,-4l55 -55c22,-23 52,-35 84,-35 32,0 62,13 84,36 46,46 45,121 -2,168zm-82 -231l-1 0c-39,0 -75,15 -102,43l-15 14 -14 -14c-27,-28 -63,-43 -102,-43l-2 0c-38,0 -74,15 -102,43 -27,27 -42,64 -42,103 0,38 15,75 42,102l182 182c11,11 25,16 38,16 14,0 28,-5 38,-16l181 -180c57,-57 58,-149 3,-206 -28,-28 -64,-44 -104,-44z"/>
  <path class="fil3" d="M578 278c-2,-24 -12,-46 -29,-63 -12,-12 -27,-21 -43,-25 -7,-2 -15,2 -17,9 -2,7 3,15 10,17 11,3 22,9 31,18 12,12 20,29 21,46 0,7 6,13 13,13 0,0 1,0 1,0 7,-1 13,-7 13,-15z"/>
 </g>
</svg>
