<?xml version="1.0" encoding="UTF-8"?>
<!DOCTYPE svg PUBLIC "-//W3C//DTD SVG 1.1//EN" "http://www.w3.org/Graphics/SVG/1.1/DTD/svg11.dtd">
<!-- Creator: CorelDRAW X7 -->
<svg xmlns="http://www.w3.org/2000/svg" xml:space="preserve" width="27.5951mm" height="27.595mm" version="1.1" style="shape-rendering:geometricPrecision; text-rendering:geometricPrecision; image-rendering:optimizeQuality; fill-rule:evenodd; clip-rule:evenodd"
viewBox="0 0 1687 1687"
 xmlns:xlink="http://www.w3.org/1999/xlink">
 <defs>
  <style type="text/css">
   <![CDATA[
    .fil0 {fill:none}
    .fil2 {fill:#FEFEFE;fill-rule:nonzero}
    .fil1 {fill:#DBE4EB;fill-rule:nonzero}
    .fil4 {fill:#252422;fill-rule:nonzero}
    .fil3 {fill:#496075;fill-rule:nonzero}
   ]]>
  </style>
 </defs>
 <g id="Слой_x0020_1">
  <metadata id="CorelCorpID_0Corel-Layer"/>
  <rect class="fil0" width="1687" height="1687"/>
  <g id="_783001961744">
   <path class="fil1" d="M394 1301l0 68c0,36 28,64 64,64l774 0c35,0 64,-28 64,-64l0 -1052c0,-35 -29,-64 -64,-64l-774 0c-36,0 -64,29 -64,64l0 912 0 72z"/>
   <path class="fil2" d="M845 622c190,0 344,155 344,345 0,190 -154,344 -344,344 -191,0 -345,-154 -345,-344 0,-190 154,-345 345,-345z"/>
   <path class="fil3" d="M946 967c0,-61 24,-116 62,-156 -41,-43 -99,-70 -163,-70 -125,0 -226,101 -226,226 0,125 101,226 226,226 64,0 122,-27 163,-70 -38,-41 -62,-96 -62,-156z"/>
   <path class="fil2" d="M1137 319c30,0 54,25 54,55 0,30 -24,54 -54,54 -30,0 -55,-24 -55,-54 0,-30 25,-55 55,-55z"/>
   <path class="fil4" d="M1230 232l-774 0c-47,0 -85,38 -85,85l0 912c0,11 10,21 21,21 12,0 21,-10 21,-21l0 -708 640 0c11,0 21,-10 21,-21 0,-12 -10,-21 -21,-21l-640 0 0 -162c0,-24 19,-43 43,-43l774 0c24,0 43,19 43,43l0 162 -154 0c-12,0 -21,9 -21,21 0,11 9,21 21,21l154 0 0 848c0,24 -19,43 -43,43l-774 0c-24,0 -43,-19 -43,-43l0 -68c0,-11 -9,-21 -21,-21 -11,0 -21,10 -21,21l0 68c0,47 38,85 85,85l774 0c47,0 85,-38 85,-85l0 -1052c0,-47 -38,-85 -85,-85z"/>
   <path class="fil4" d="M1128 1162c10,6 23,3 29,-7 34,-57 52,-122 52,-188 0,-202 -164,-366 -366,-366 -201,0 -365,164 -365,366 0,201 164,365 365,365 97,0 188,-37 257,-105 8,-8 8,-21 0,-29 -8,-9 -21,-9 -30,-1 -61,60 -141,93 -227,93 -178,0 -323,-145 -323,-323 0,-179 145,-324 323,-324 179,0 324,145 324,324 0,59 -16,116 -46,166 -6,10 -3,23 7,29z"/>
   <path class="fil4" d="M923 967c0,57 20,111 55,155 -37,32 -85,50 -135,50 -113,0 -205,-92 -205,-205 0,-113 92,-205 205,-205 50,0 98,17 135,50 -35,44 -55,98 -55,155zm99 -171c-47,-49 -111,-76 -179,-76 -136,0 -247,111 -247,247 0,136 111,247 247,247 68,0 132,-27 179,-77 8,-8 8,-20 0,-29 -37,-38 -57,-88 -57,-141 0,-53 20,-103 57,-142 8,-8 8,-21 0,-29z"/>
   <path class="fil4" d="M1102 374c0,-19 15,-34 33,-34 19,0 34,15 34,34 0,18 -15,33 -34,33 -18,0 -33,-15 -33,-33zm109 0c0,-42 -34,-76 -76,-76 -41,0 -75,34 -75,76 0,41 34,75 75,75 42,0 76,-34 76,-75z"/>
   <path class="fil4" d="M577 319l-84 0c-11,0 -21,10 -21,21 0,12 10,21 21,21l84 0c12,0 21,-9 21,-21 0,-11 -9,-21 -21,-21z"/>
   <path class="fil4" d="M577 395l-84 0c-11,0 -21,9 -21,21 0,11 10,21 21,21l84 0c12,0 21,-10 21,-21 0,-12 -9,-21 -21,-21z"/>
   <path class="fil4" d="M731 319l-84 0c-11,0 -21,10 -21,21 0,12 10,21 21,21l84 0c12,0 21,-9 21,-21 0,-11 -9,-21 -21,-21z"/>
   <path class="fil4" d="M731 395l-84 0c-11,0 -21,9 -21,21 0,11 10,21 21,21l84 0c12,0 21,-10 21,-21 0,-12 -9,-21 -21,-21z"/>
  </g>
 </g>
</svg>
