<?xml version="1.0" encoding="UTF-8"?>
<!DOCTYPE svg PUBLIC "-//W3C//DTD SVG 1.1//EN" "http://www.w3.org/Graphics/SVG/1.1/DTD/svg11.dtd">
<!-- Creator: CorelDRAW X7 -->
<svg xmlns="http://www.w3.org/2000/svg" xml:space="preserve" width="27.5951mm" height="27.595mm" version="1.1" style="shape-rendering:geometricPrecision; text-rendering:geometricPrecision; image-rendering:optimizeQuality; fill-rule:evenodd; clip-rule:evenodd"
viewBox="0 0 461 461"
 xmlns:xlink="http://www.w3.org/1999/xlink">
 <defs>
  <style type="text/css">
   <![CDATA[
    .fil0 {fill:none}
    .fil1 {fill:#FCD776;fill-rule:nonzero}
    .fil2 {fill:#DBE4EB;fill-rule:nonzero}
    .fil3 {fill:#252422;fill-rule:nonzero}
   ]]>
  </style>
 </defs>
 <g id="Слой_x0020_1">
  <metadata id="CorelCorpID_0Corel-Layer"/>
  <rect class="fil0" width="461" height="461"/>
  <g id="_782996578960">
   <path class="fil1" d="M210 137l0 58 -84 0 0 -83 59 0c14,0 25,11 25,25z"/>
   <path class="fil2" d="M210 137l0 34 -49 0 0 -59 24 0c14,0 25,11 25,25z"/>
   <polygon class="fil1" points="173,392 98,392 98,364 224,364 224,392 190,392 "/>
   <path class="fil3" d="M204 190l-73 0 0 -73 24 0 0 15c0,3 2,5 5,5 3,0 6,-2 6,-5l0 -15 13 0c0,0 0,0 0,0 0,0 6,0 6,0 10,0 19,9 19,20l0 28 -38 0 0 -16c0,-3 -3,-5 -6,-5 -3,0 -5,2 -5,5l0 22c0,3 2,5 5,5l44 0 0 14zm-27 35l-25 -24 25 0 0 24zm-25 133l25 -24 0 24 -25 0zm-7 -93l0 -57 28 29 -28 28zm30 56l-30 30 0 -60 30 30zm2 -13l-30 -30 30 -30 0 60zm-88 -160l24 24 -24 0 0 -24zm32 17l-25 -25 25 0 0 25zm40 -82l10 23 -20 0 10 -23zm101 57l60 0 -30 30 -30 -30zm-11 4l28 28 -56 0 28 -28zm-36 21l0 -25 25 0 -25 25zm90 7l30 -30 30 30 -60 0zm68 -7l-25 -25 25 0 0 25zm5 -36l-164 0c-3,-13 -15,-23 -29,-23l-3 0 -16 -39c-1,-2 -3,-4 -5,-4 -2,0 -4,2 -5,4l-17 39 -13 0c-3,0 -5,3 -5,6l0 17 -38 0c-3,0 -5,3 -5,6l0 43c0,3 2,5 5,5l38 0 0 12c0,3 2,6 5,6l8 0 0 157 -37 0c-3,0 -5,3 -5,6l0 28c0,3 2,6 5,6l75 0c3,0 6,-3 6,-6 0,-3 -3,-5 -6,-5l-69 0 0 -18 116 0 0 18 -29 0c-3,0 -6,2 -6,5 0,3 3,6 6,6l34 0c3,0 5,-3 5,-6l0 -28c0,-3 -2,-6 -5,-6l-36 0 0 -157 22 0c3,0 5,-3 5,-6l0 -12 131 0 0 49 -3 0c-3,0 -5,2 -5,5 0,3 2,6 5,6l3 0 0 13c0,3 3,6 6,6 5,0 9,4 9,10 0,5 -4,9 -9,9 -6,0 -10,-4 -10,-9 0,-3 -3,-6 -6,-6 -3,0 -5,3 -5,6 0,11 9,20 21,20 11,0 20,-9 20,-20 0,-10 -6,-18 -15,-20l0 -9 3 0c3,0 6,-3 6,-6 0,-3 -3,-5 -6,-5l-3 0 0 -49 21 0c3,0 5,-2 5,-5l0 -43c0,-3 -2,-6 -5,-6z"/>
  </g>
 </g>
</svg>
